HIERARCHY
ROOT Hips
{
	OFFSET 0.000000 0.000000 0.000000 
	CHANNELS 6 Xposition Yposition Zposition Zrotation Yrotation Xrotation
	JOINT LeftUpLeg
	{
		OFFSET 1.363060 -1.794630 0.839290 
		CHANNELS 3 Zrotation Yrotation Xrotation
		JOINT LeftLeg
		{
			OFFSET 2.448110 -6.726130 0.000000 
			CHANNELS 3 Zrotation Yrotation Xrotation
			JOINT LeftFoot
			{
				OFFSET 2.562200 -7.039590 0.000000 
				CHANNELS 3 Zrotation Yrotation Xrotation
				JOINT LeftToeBase
				{
					OFFSET 0.157640 -0.433110 2.322550 
					CHANNELS 3 Zrotation Yrotation Xrotation
					End Site
					{
						OFFSET 0.000000 0.000000 0.000000 
					}
				}
			}
		}
	}
	JOINT RightUpLeg
	{
		OFFSET -1.305520 -1.794630 0.839290 
		CHANNELS 3 Zrotation Yrotation Xrotation
		JOINT RightLeg
		{
			OFFSET -2.542530 -6.985550 0.000000 
			CHANNELS 3 Zrotation Yrotation Xrotation
			JOINT RightFoot
			{
				OFFSET -2.568260 -7.056230 0.000000 
				CHANNELS 3 Zrotation Yrotation Xrotation
				JOINT RightToeBase
				{
					OFFSET -0.164730 -0.452590 2.363150 
					CHANNELS 3 Zrotation Yrotation Xrotation
					End Site
					{
						OFFSET 0.000000 0.000000 0.000000 
					}
				}
			}
		}
	}
	JOINT Spine
	{
		OFFSET 0.028270 2.035590 -0.193380 
		CHANNELS 3 Zrotation Yrotation Xrotation
		JOINT Spine1
		{
			OFFSET 0.056720 2.048850 -0.042750 
			CHANNELS 3 Zrotation Yrotation Xrotation
			JOINT Neck1
			{
				OFFSET -0.054170 1.746240 0.172020 
				CHANNELS 3 Zrotation Yrotation Xrotation
				JOINT Head
				{
					OFFSET 0.104070 1.761360 -0.123970 
					CHANNELS 3 Zrotation Yrotation Xrotation
					End Site
					{
						OFFSET 0.000000 0.000000 0.000000 
					}
				}
			}
			JOINT LeftArm
			{
				OFFSET 3.362410 1.200890 -0.311210 
				CHANNELS 3 Zrotation Yrotation Xrotation
				JOINT LeftForeArm
				{
					OFFSET 4.983000 -0.000000 -0.000000 
					CHANNELS 3 Zrotation Yrotation Xrotation
					JOINT LeftHand
					{
						OFFSET 3.483560 -0.000000 -0.000000 
						CHANNELS 3 Zrotation Yrotation Xrotation
						JOINT LeftHandIndex1
						{
							OFFSET 0.715260 -0.000000 -0.000000 
							CHANNELS 3 Zrotation Yrotation Xrotation
							End Site
							{
								OFFSET 0.000000 0.000000 0.000000 
							}
						}
					}
				}
			}
			JOINT RightArm
			{
				OFFSET -3.136600 1.374050 -0.404650 
				CHANNELS 3 Zrotation Yrotation Xrotation
				JOINT RightForeArm
				{
					OFFSET -5.241900 -0.000000 -0.000000 
					CHANNELS 3 Zrotation Yrotation Xrotation
					JOINT RightHand
					{
						OFFSET -3.444170 -0.000000 -0.000000 
						CHANNELS 3 Zrotation Yrotation Xrotation
						JOINT RightHandIndex1
						{
							OFFSET -0.622530 -0.000000 -0.000000 
							CHANNELS 3 Zrotation Yrotation Xrotation
							End Site
							{
								OFFSET 0.000000 0.000000 0.000000 
							}
						}
					}
				}
			}
		}
	}
}
MOTION
Frames: 13
Frame Time: 0.041667
-11.089224 16.518669 -9.963742 7.735130 37.427303 15.746872 -1.777874 -6.924176 -42.998614 8.264763 18.828414 54.481404 9.269186 -15.904695 12.438439 1.717900 -8.252000 -23.482200 11.348105 -16.671221 -56.099424 -17.045784 -20.326252 75.735369 1.148282 -5.798532 0.862919 -0.103600 2.075400 -5.714100 0.577095 2.851925 -2.819989 2.347199 1.533647 -4.373105 8.051021 -13.961035 0.152869 3.127900 -6.422200 3.984200 -59.358561 5.122470 -10.161904 20.185912 -32.956950 -17.420344 -4.930385 -7.445202 -4.030399 -7.125000 0.000000 0.000000 31.127984 13.350033 -15.781020 -27.967385 32.048507 -22.872959 3.319770 1.463400 27.599017 7.125000 0.000000 0.000000 
-11.130053 16.545431 -9.932176 7.746194 37.395764 15.793635 -1.534184 -7.060427 -42.684035 8.103114 18.737850 54.023580 9.249074 -15.740773 12.702477 1.679300 -8.163500 -23.211900 11.514417 -16.644014 -56.053848 -16.967527 -20.309544 75.543754 1.155643 -5.816581 0.888526 -0.101800 2.057100 -5.663400 0.600548 2.786575 -2.817930 2.512236 1.491267 -4.295170 8.024022 -13.703600 0.235719 3.142500 -6.299900 4.036200 -59.647742 5.194065 -9.889800 20.381502 -33.152775 -17.598662 -4.732270 -7.422915 -4.837399 -7.125000 0.000000 0.000000 30.883172 13.444366 -15.616180 -27.860803 31.982689 -22.753290 3.301227 1.449235 27.611917 7.125000 0.000000 0.000000 
-11.171340 16.562129 -9.893520 7.661570 37.409389 15.789684 -1.256888 -7.121991 -42.433788 7.969066 18.652410 53.577917 9.133466 -15.256532 12.872681 1.813800 -8.467000 -24.141800 11.793048 -16.648081 -56.060749 -16.913786 -20.295416 75.439497 1.250555 -6.010160 0.851642 -0.113700 2.173800 -5.986200 0.605016 2.773959 -2.817890 2.488016 1.472135 -4.140970 7.925283 -13.535256 0.367471 3.039500 -6.230700 4.173900 -59.549413 5.191960 -10.234730 20.131996 -32.946506 -17.384193 -4.886932 -7.434692 -3.430968 -7.125000 0.000000 0.000000 30.985291 13.422444 -15.567177 -28.033768 32.108632 -22.938855 3.265948 1.469772 27.738278 7.125000 0.000000 0.000000 
-11.215600 16.581914 -9.845029 7.823250 37.352004 15.794226 -1.221884 -7.057242 -42.035596 7.813444 18.526767 53.120815 9.045321 -14.846028 13.050094 1.967400 -8.797900 -25.165200 11.772133 -16.662086 -55.882367 -16.862482 -20.289247 75.307975 1.095133 -5.709174 0.845538 -0.090200 1.936600 -5.330400 0.601390 2.749012 -2.814900 2.570348 1.452620 -4.146357 7.881144 -13.425435 0.346496 3.020600 -6.184000 4.120500 -59.582051 5.153381 -10.639766 19.877293 -32.719758 -17.152776 -4.710873 -7.116674 -2.741902 -7.125000 0.000000 0.000000 31.226462 13.305482 -15.393135 -28.327135 32.333109 -23.226940 3.258925 1.548576 27.731215 7.125000 0.000000 0.000000 
-11.254027 16.603186 -9.800540 7.952856 37.395188 15.834666 -1.130309 -7.152262 -41.682754 7.675610 18.424959 52.683772 8.910718 -14.305247 13.123935 2.144300 -9.160400 -26.298500 11.810929 -16.735596 -55.708104 -16.789180 -20.273225 75.092432 1.044319 -5.616208 0.911088 -0.069400 1.699400 -4.675500 0.611383 2.688506 -2.800429 2.596757 1.416186 -4.002409 7.785105 -13.378527 0.359723 2.931500 -6.175200 4.074600 -59.638947 4.941851 -11.108169 19.592603 -32.449037 -16.877088 -4.784604 -7.092527 -2.449642 -7.125000 0.000000 0.000000 31.144931 13.314129 -15.294793 -28.301352 32.334965 -23.192504 3.296695 1.539048 27.763622 7.125000 0.000000 0.000000 
-11.297029 16.627890 -9.758339 7.838886 37.323106 15.782001 -0.891980 -7.079067 -41.419534 7.555588 18.323506 52.243073 8.737758 -13.676204 13.281363 2.309400 -9.482900 -27.317900 12.047149 -16.624089 -55.604366 -16.690258 -20.255408 74.870807 1.121042 -5.778486 0.856456 -0.076000 1.778300 -4.893200 0.607742 2.710184 -2.801423 2.454407 1.428736 -3.887031 7.753250 -13.279856 0.472308 2.874800 -6.128800 4.219000 -59.556112 4.854574 -11.243413 19.456030 -32.317767 -16.736396 -4.963906 -7.197718 -2.374610 -7.125000 0.000000 0.000000 30.935701 13.387102 -15.394100 -27.954383 32.093908 -22.845256 3.321763 1.424342 28.159424 7.125000 0.000000 0.000000 
-11.345978 16.651106 -9.717396 7.568495 37.139497 15.594754 -0.545248 -6.799822 -41.115131 7.375791 18.189228 51.750087 8.786435 -13.769978 13.968007 2.171800 -9.215100 -26.470400 12.333101 -16.324967 -55.488453 -16.559914 -20.234934 74.594549 1.172427 -5.872000 0.982138 -0.070800 1.716500 -4.722700 0.614187 2.799038 -2.814538 2.438864 1.460995 -3.947645 7.718961 -13.050489 0.551549 2.836000 -6.024800 4.296400 -59.584355 4.952623 -11.214145 19.431030 -32.306580 -16.704741 -5.125071 -7.311088 -2.446469 -7.125000 0.000000 0.000000 30.835630 13.414002 -15.349238 -27.798741 31.986930 -22.679983 3.285333 1.371366 28.277535 7.125000 0.000000 0.000000 
-11.387607 16.662771 -9.677939 7.516828 36.989678 15.537429 -0.338518 -6.689644 -40.805592 7.214866 18.083508 51.411442 8.866788 -14.066957 14.747673 1.821800 -8.484700 -24.196200 12.452967 -16.191198 -55.394810 -16.473615 -20.224173 74.402169 1.069226 -5.662944 1.088647 -0.061400 1.599100 -4.398900 0.622714 2.737284 -2.823914 2.498259 1.427898 -4.029696 7.646737 -12.812498 0.556769 2.800100 -5.922700 4.223100 -59.709892 5.185120 -11.290477 19.438244 -32.346951 -16.727711 -5.128973 -7.400657 -2.762804 -7.125000 0.000000 0.000000 31.037949 13.489824 -15.051834 -27.962656 32.113355 -22.779678 3.258192 1.357618 28.273675 7.125000 0.000000 0.000000 
-11.432210 16.676838 -9.638025 7.451245 36.807570 15.480067 0.115386 -6.874545 -40.467096 7.068943 18.024535 51.182490 9.195798 -15.147018 15.560058 1.233000 -7.041800 -19.839200 12.617151 -16.022111 -55.252584 -16.378431 -20.209187 74.204092 1.039422 -5.615562 0.995256 -0.062800 1.616400 -4.446700 0.622776 2.741480 -2.834891 2.463985 1.436124 -4.117470 7.672148 -12.681993 0.575035 2.869500 -5.855400 4.223300 -59.739748 5.290661 -11.586479 19.278410 -32.212417 -16.582046 -5.163759 -7.344935 -2.479019 -7.125000 0.000000 0.000000 30.722628 13.488091 -14.878119 -27.690653 31.928578 -22.507648 3.317920 1.330750 28.219280 7.125000 0.000000 0.000000 
-11.481273 16.707031 -9.592279 7.345713 36.676851 15.370878 0.804664 -7.224307 -40.026736 6.888610 17.982449 50.971503 9.760051 -17.133254 16.575188 0.567700 -4.825700 -13.412100 12.872542 -15.936019 -54.992558 -16.241993 -20.172463 73.889553 1.025570 -5.603502 0.967208 -0.057200 1.542700 -4.243400 0.653530 2.846604 -2.819875 2.539976 1.474393 -3.972673 7.718222 -12.551969 0.639928 2.907900 -5.785500 4.298200 -59.812361 4.992084 -12.110254 18.976968 -31.905992 -16.309369 -5.175353 -7.205077 -1.747032 -7.125000 0.000000 0.000000 29.307908 13.643718 -15.111811 -26.690668 31.187275 -21.603887 3.408045 1.289876 27.944217 7.125000 0.000000 0.000000 
-11.533310 16.739511 -9.541614 7.335432 36.686141 15.323263 1.334482 -7.566180 -39.555403 6.734158 17.922608 50.703243 10.048612 -18.210437 17.242484 0.305700 -3.554700 -9.827200 13.094886 -15.962753 -54.749055 -16.093822 -20.132928 73.517921 0.982360 -5.543431 0.899456 -0.053300 1.489500 -4.096800 0.675295 2.812667 -2.808189 2.656347 1.436147 -3.787549 7.632271 -12.351244 0.701056 2.814200 -5.698700 4.352900 -59.834700 4.987793 -12.161316 18.857568 -31.833577 -16.235826 -5.024936 -7.148110 -1.724618 -7.125000 0.000000 0.000000 29.073529 13.758460 -15.179259 -26.620000 31.124117 -21.551540 3.336623 1.340485 28.118665 7.125000 0.000000 0.000000 
-11.584775 16.762042 -9.490263 7.028989 36.517348 15.060784 1.780988 -7.488471 -39.135856 6.642981 17.826671 50.372554 10.126090 -18.290782 17.512097 0.283400 -3.423500 -9.460200 13.424416 -15.720698 -54.486094 -15.929456 -20.103509 73.167468 1.035923 -5.670006 0.761743 -0.052800 1.483200 -4.079500 0.659277 2.846942 -2.813022 2.703311 1.425545 -3.779533 7.576046 -12.234194 0.790240 2.783900 -5.647100 4.448800 -59.759645 5.208445 -12.025472 18.845359 -31.867849 -16.232831 -5.032380 -7.240923 -2.043557 -7.125000 0.000000 0.000000 30.378975 13.706232 -14.832457 -27.594442 31.840123 -22.408045 3.245155 1.406676 28.401446 7.125000 0.000000 0.000000 
-11.630865 16.773593 -9.440400 6.567643 36.301471 14.656253 2.276393 -7.373753 -38.694872 6.562337 17.724671 49.987994 10.097880 -17.931509 17.738386 0.302100 -3.534000 -9.769300 13.853902 -15.507383 -54.214200 -15.775654 -20.070762 72.865533 1.061707 -5.726521 0.780653 -0.040000 1.290200 -3.547800 0.666477 2.971478 -2.806424 2.831647 1.455941 -3.756645 7.635432 -12.143369 0.884672 2.893800 -5.592200 4.561300 -59.919765 5.261930 -12.246595 18.734037 -31.773839 -16.102778 -5.229368 -7.355592 -1.982470 -7.125000 0.000000 0.000000 30.754011 13.711838 -14.605102 -27.859428 32.039327 -22.610501 3.254472 1.426875 28.530138 7.125000 0.000000 0.000000 
